<svg xmlns="http://www.w3.org/2000/svg" viewBox="0 0 48 48"><defs>
    <style>.cls-1{fill:#868485FF;}</style></defs><title>Asset 1ldpi</title><g id="Layer_2" data-name="Layer 2"><g id="layer_1-2" data-name="layer 1"><path class="cls-1" d="M24,9c-2.21,0-4-2.24-4-5a3.71,3.71,0,0,1,4-4,3.71,3.71,0,0,1,4,4C28,6.76,26.21,9,24,9Zm0-7c-1.79,0-2,1.14-2,2,0,1.6.93,3,2,3s2-1.4,2-3C26,3.14,25.79,2,24,2Z"/><path class="cls-1" d="M31,14H29V10.69a1,1,0,0,0-.83-1L24,9l-4.17.7a1,1,0,0,0-.83,1V14H17V10.69a3,3,0,0,1,2.51-2.95L23.84,7h.32l4.33.73A3,3,0,0,1,31,10.69Z"/><path class="cls-1" d="M24,42c-2.21,0-4-2.24-4-5a3.71,3.71,0,0,1,4-4,3.71,3.71,0,0,1,4,4C28,39.76,26.21,42,24,42Zm0-7c-1.79,0-2,1.14-2,2,0,1.6.93,3,2,3s2-1.4,2-3C26,36.14,25.79,35,24,35Z"/><path class="cls-1" d="M31,48H29V43.69a1,1,0,0,0-.83-1L24,42l-4.17.7a1,1,0,0,0-.83,1V48H17V43.69a3,3,0,0,1,2.51-2.95L23.84,40h.32l4.33.73A3,3,0,0,1,31,43.69Z"/><path class="cls-1" d="M7,25c-2.21,0-4-2.24-4-5a3.71,3.71,0,0,1,4-4,3.71,3.71,0,0,1,4,4C11,22.76,9.21,25,7,25Zm0-7c-1.79,0-2,1.14-2,2,0,1.6.93,3,2,3s2-1.4,2-3C9,19.14,8.79,18,7,18Z"/><path class="cls-1" d="M14,31H12V26.69a1,1,0,0,0-.83-1L7,25l-4.17.7a1,1,0,0,0-.83,1V31H0V26.69a3,3,0,0,1,2.51-3L6.84,23a1.71,1.71,0,0,1,.32,0l4.33.73a3,3,0,0,1,2.51,3Z"/><path class="cls-1" d="M41,25c-2.21,0-4-2.24-4-5a3.71,3.71,0,0,1,4-4,3.71,3.71,0,0,1,4,4C45,22.76,43.21,25,41,25Zm0-7c-1.79,0-2,1.14-2,2,0,1.6.93,3,2,3s2-1.4,2-3C43,19.14,42.79,18,41,18Z"/><path class="cls-1" d="M48,31H46V26.69a1,1,0,0,0-.83-1L41,25l-4.17.7a1,1,0,0,0-.83,1V31H34V26.69a3,3,0,0,1,2.51-3L40.84,23a1.71,1.71,0,0,1,.32,0l4.33.73a3,3,0,0,1,2.51,3Z"/><path class="cls-1" d="M42,13H40V6H30V4H41a1,1,0,0,1,1,1Z"/><path class="cls-1" d="M41,14a1,1,0,0,1-.71-.29l-4-4,1.42-1.42L41,11.59l3.29-3.3,1.42,1.42-4,4A1,1,0,0,1,41,14Z"/><path class="cls-1" d="M15,44H7a1,1,0,0,1-1-1V32H8V42h7Z"/><path class="cls-1" d="M10.29,36.71,7,33.41l-3.29,3.3L2.29,35.29l4-4a1,1,0,0,1,1.42,0l4,4Z"/><path class="cls-1" d="M8,13H6V5A1,1,0,0,1,7,4h9V6H8Z"/><path class="cls-1" d="M12.71,9.71,11.29,8.29,14.59,5l-3.3-3.29L12.71.29l4,4a1,1,0,0,1,0,1.42Z"/><path class="cls-1" d="M41,44H34V42h6V31h2V43A1,1,0,0,1,41,44Z"/><path class="cls-1" d="M37.29,47.71l-4-4a1,1,0,0,1,0-1.42l4-4,1.42,1.42L35.41,43l3.3,3.29Z"/></g></g></svg>