<?xml version="1.0" standalone="no"?>
<!DOCTYPE svg PUBLIC "-//W3C//DTD SVG 20010904//EN"
 "http://www.w3.org/TR/2001/REC-SVG-20010904/DTD/svg10.dtd">
<svg version="1.0" xmlns="http://www.w3.org/2000/svg"
 width="537.000000pt" height="191.000000pt" viewBox="0 0 537.000000 191.000000"
 preserveAspectRatio="xMidYMid meet">

<g transform="translate(0.000000,191.000000) scale(0.100000,-0.100000)"
fill="#FFFFFFFF" stroke="none">
<path d="M0 955 l0 -955 943 0 c720 0 946 3 955 12 9 9 12 235 12 955 l0 943
-955 0 -955 0 0 -955z m427 670 c217 -33 395 -117 534 -255 67 -66 95 -102
124 -162 63 -128 77 -233 49 -355 -68 -298 -371 -519 -768 -562 -49 -5 -95 -7
-103 -4 -9 4 -13 28 -13 88 l0 83 73 7 c228 22 428 108 537 232 276 314 -4
717 -530 762 l-75 6 -3 74 c-2 41 -1 80 2 88 7 17 45 17 173 -2z m1113 -680
l0 -676 -87 3 -88 3 -3 660 c-1 363 0 666 3 673 3 8 31 12 90 12 l85 0 0 -675z"/>
<path d="M3280 1729 c-64 -13 -120 -56 -155 -119 -29 -53 -30 -60 -30 -180 0
-115 2 -130 26 -175 52 -103 160 -149 293 -126 80 13 164 55 172 85 3 12 4 68
2 126 l-3 105 -122 3 -123 3 0 -51 0 -50 50 0 50 0 0 -50 c0 -49 0 -49 -41
-61 -57 -18 -116 3 -143 50 -45 78 -27 280 30 317 57 38 143 10 158 -52 6 -22
11 -24 71 -24 63 0 65 1 65 25 0 61 -53 131 -120 158 -48 20 -126 27 -180 16z"/>
<path d="M2308 1724 c-5 -4 -8 -140 -8 -302 l0 -294 138 4 c145 4 166 10 239
65 76 58 114 217 79 335 -19 68 -79 138 -144 169 -39 20 -67 24 -172 27 -69 2
-128 1 -132 -4z m242 -122 c51 -25 70 -70 70 -170 0 -135 -33 -186 -123 -187
l-52 0 -3 175 c-1 96 0 180 2 187 7 19 65 16 106 -5z"/>
<path d="M2855 1718 c-3 -7 -4 -141 -3 -298 l3 -285 73 -3 72 -3 -2 298 -3
298 -68 3 c-48 2 -69 -1 -72 -10z"/>
<path d="M3680 1430 l0 -300 70 0 70 0 0 300 0 300 -70 0 -70 0 0 -300z"/>
<path d="M3887 1723 c-4 -3 -7 -28 -7 -54 l0 -48 88 -3 87 -3 3 -242 2 -243
70 0 70 0 2 243 3 242 88 3 87 3 0 54 0 55 -243 0 c-134 0 -247 -3 -250 -7z"/>
<path d="M4554 1693 c-18 -41 -193 -518 -201 -545 -5 -16 3 -18 70 -18 l76 0
16 55 16 56 101 -3 101 -3 17 -50 17 -50 78 -3 c71 -3 77 -1 70 15 -4 10 -49
133 -101 273 -52 140 -99 267 -105 283 -11 26 -15 27 -76 27 l-64 0 -15 -37z
m135 -325 c1 -15 -8 -18 -59 -18 -33 0 -60 3 -60 8 0 8 47 158 57 182 6 15 61
-137 62 -172z"/>
<path d="M4970 1430 l0 -300 195 0 195 0 0 55 0 55 -125 0 -125 0 -2 243 -3
242 -67 3 -68 3 0 -301z"/>
<path d="M2457 734 c-66 -20 -129 -84 -152 -155 -27 -79 -24 -220 5 -285 45
-104 121 -154 235 -154 114 0 189 49 236 155 18 40 23 69 23 146 0 89 -3 102
-32 162 -61 124 -179 173 -315 131z m133 -109 c44 -23 63 -68 68 -160 8 -142
-31 -215 -112 -215 -23 0 -51 7 -63 15 -45 32 -67 180 -42 280 15 59 49 89
107 94 7 0 26 -6 42 -14z"/>
<path d="M2882 443 l3 -298 68 -3 67 -3 0 181 c0 99 3 180 8 180 4 0 52 -80
107 -178 l101 -177 69 0 70 0 3 298 2 297 -70 0 -70 0 0 -175 c0 -96 -4 -175
-9 -175 -4 0 -53 79 -107 175 l-99 175 -73 0 -72 0 2 -297z"/>
<path d="M3472 443 l3 -298 200 0 200 0 3 52 3 52 -133 3 -133 3 0 70 0 70
113 3 112 3 0 49 0 49 -112 3 -113 3 0 60 0 60 133 3 132 3 0 54 0 55 -205 0
-205 0 2 -297z"/>
</g>
</svg>
