<?xml version="1.0" standalone="no"?>
<svg version="1.0" xmlns="http://www.w3.org/2000/svg"
 width="191.000000pt" height="191.000000pt" viewBox="0 0 191.000000 191.000000"
 preserveAspectRatio="xMidYMid meet">

<g transform="translate(0.000000,191.000000) scale(0.050000,-0.050000)"
fill="#2E2C2CAF" stroke="none">
<path d="M560 3065 l0 -160 162 -14 c1010 -88 1580 -871 1089 -1495 -208 -264
-722 -516 -1051 -516 -41 0 -103 -6 -138 -13 l-62 -12 0 -147 c0 -104 7 -149
25 -150 472 -47 1163 249 1473 632 671 829 -43 1926 -1317 2022 l-181 14 0
-161z"/>
<path d="M2785 1855 l5 -1325 155 -6 155 -6 0 1331 0 1331 -160 0 -160 0 5
-1325z"/>
</g>
</svg>
